<?xml version="1.0" encoding="utf-8"?>
<!-- Generator: Adobe Illustrator 21.1.0, SVG Export Plug-In . SVG Version: 6.00 Build 0)  -->
<svg version="1.1" id="Calque_1" xmlns="http://www.w3.org/2000/svg" xmlns:xlink="http://www.w3.org/1999/xlink" x="0px" y="0px"
	 viewBox="0 0 284.9 160.1" style="enable-background:new 0 0 284.9 160.1;" xml:space="preserve">
<style type="text/css">
	.st0{fill:#FFFFFF;}
	.st1{fill:#74FAAA;}
</style>
<title>logo_levelup</title>
<path d="M241.6,102.4c-0.9-4.4-2.4-8.7-4.6-12.6l-1-1.9c-0.4-0.7-0.8-1.5-1.3-2.2h50.2L235.3,0H49.7L0,85.7h47.5l-4.9,9.1
	c-2.4,4.4-4.4,9.1-5.9,14c-2.1,6.8-2.5,14.1-1.2,21.1c2,9.4,7.9,17.6,16.2,22.5c8.4,5.1,19.7,7.8,33.4,7.8h4.6
	c13,0,24.7-2.3,34.6-6.9c2-0.9,3.9-1.9,5.8-3.1l0.2,8.3h70l-4.6-22.6h9.5c7.7,0,14.1-1.1,19.4-3.2c8.4-3.4,12.6-9,14.6-13
	C242,114.3,242.8,108.2,241.6,102.4L241.6,102.4z"/>
<polygon class="st0" points="76.8,9.6 61.4,9.6 27.6,72.4 67.3,72.4 73.4,55 57,55 "/>
<polygon class="st0" points="121,9.6 92.2,9.6 71.1,72.4 112.7,72.4 115.2,55.1 96.7,55.1 99.9,41.2 113.2,41.2 115.3,28.4 
	103,28.4 105.1,19.3 119.6,19.3 "/>
<polygon class="st0" points="208.1,9.6 223.5,9.6 257.3,72.4 217.6,72.4 211.5,55 227.9,55 "/>
<polygon class="st0" points="163.9,9.6 192.8,9.6 213.8,72.4 172.2,72.4 169.8,55.1 188.2,55.1 185,41.2 171.8,41.2 169.7,28.4 
	182,28.4 179.8,19.3 165.3,19.3 "/>
<polygon class="st0" points="147.3,9.6 146.5,9.6 142.4,45 138.2,9.6 137.5,9.6 122.6,9.6 127.9,72.4 128.3,72.4 156.4,72.4 
	156.9,72.4 162.1,9.6 "/>
<path class="st1" d="M140.9,79h-23.7l-3.7,20.4c-0.3,1.7-0.8,3.3-1.5,4.9c-0.8,1.7-1.8,3.3-3.1,4.6c-1.5,1.5-3.3,2.7-5.3,3.5
	c-2.5,1-5.2,1.4-7.8,1.4h-0.2c-2.5,0.1-4.9-0.4-7.2-1.4c-1.5-0.7-2.8-2-3.4-3.5c-0.6-1.5-0.8-3.1-0.6-4.6c0.2-1.7,0.6-3.3,1.2-4.9
	L93,79H69.3l-12.6,23.4c-1.9,3.5-3.4,7.1-4.6,10.9c-1.4,4.3-1.7,8.8-0.9,13.3c1.1,5.1,4.3,9.5,8.9,12.1c5.5,3.3,13.6,5.4,25,5.4h4.6
	c11.4,0,20.7-2.1,28-5.4c6.1-2.7,11.4-6.8,15.5-12.1c3-4,5.1-8.5,6.3-13.3c0.9-3.6,1.3-7.2,1.3-10.9L140.9,79"/>
<path class="st1" d="M172.3,100.2l-1.5-7.3h18.2c0.8,0,1.6,0.1,2.3,0.3c0.6,0.1,1.2,0.4,1.7,0.7c0.4,0.3,0.8,0.7,1.1,1.1
	c0.3,0.4,0.5,0.9,0.7,1.4l0.1,0.2c0.2,0.4,0.3,0.9,0.3,1.3c0,0.4-0.1,0.8-0.4,1.2c-0.3,0.4-0.7,0.7-1.2,0.8
	c-0.7,0.2-1.5,0.3-2.2,0.3L172.3,100.2 M190.3,79h-45.9l1.6,63.5h34.8l-4.6-22.6h29.1c5.8,0,10.2-0.7,13.4-2.1
	c5.3-1.6,8.5-7.1,7.1-12.5c-0.6-2.8-1.6-5.4-3-7.9l-1-1.9c-1.3-2.5-2.9-4.8-4.8-6.9c-1.9-2-4.1-3.8-6.5-5.2
	c-2.7-1.5-5.6-2.6-8.7-3.3C198.1,79.3,194.2,79,190.3,79"/>
<polygon points="57,55 50.6,55 59.6,49.1 "/>
<polygon points="227.9,55 234.3,55 225.3,49.1 "/>
</svg>
